<svg xmlns="http://www.w3.org/2000/svg" width="26.872" height="24.634" viewBox="0 0 26.872 24.634"><defs><style>.a{fill:#fff;}</style></defs><g transform="translate(0 -0.492)"><path class="a" d="M7,160.208a4.192,4.192,0,0,1-3.966-2.856l-.039-.129a4.087,4.087,0,0,1-.194-1.214v-7.634L.082,157.442a2.543,2.543,0,0,0,1.782,3.085l17.314,4.637a2.568,2.568,0,0,0,.645.083,2.5,2.5,0,0,0,2.42-1.831l1.009-3.208Zm0,0" transform="translate(0 -140.121)"/><path class="a" d="M151.559,68.971a2.239,2.239,0,1,0-2.239-2.239A2.242,2.242,0,0,0,151.559,68.971Zm0,0" transform="translate(-141.483 -60.641)"/><path class="a" d="M104.915.492h-16.8a2.8,2.8,0,0,0-2.8,2.8V15.608a2.8,2.8,0,0,0,2.8,2.8h16.8a2.8,2.8,0,0,0,2.8-2.8V3.292a2.8,2.8,0,0,0-2.8-2.8Zm-16.8,2.239h16.8a.56.56,0,0,1,.56.56V11.24l-3.537-4.127a2.006,2.006,0,0,0-1.5-.688,1.957,1.957,0,0,0-1.5.707l-4.159,4.992-1.355-1.352a1.965,1.965,0,0,0-2.777,0l-3.09,3.089V3.292A.56.56,0,0,1,88.119,2.732Zm0,0" transform="translate(-80.842 0)"/></g></svg>