<svg xmlns="http://www.w3.org/2000/svg" xmlns:xlink="http://www.w3.org/1999/xlink" width="52" height="52" viewBox="0 0 52 52"><defs><style>.a,.c{fill:#3f8ac5;}.a{stroke:#707070;}.b{clip-path:url(#a);}</style><clipPath id="a"><rect class="a" width="52" height="52" transform="translate(1175 599)"/></clipPath></defs><g class="b" transform="translate(-1175 -599)"><g transform="translate(1169 591.203)"><path class="c" d="M12.68,33.8c.108,0,.214.006.32.015V26.489a1.691,1.691,0,0,0-3.363-.257L8.017,36.764l1.9,8.532,4.756,4.756,4.957,3.965A1,1,0,0,1,20,54.8v5h8V50.61a8.149,8.149,0,0,0-2.4-5.8l-.474-.474a8.238,8.238,0,0,0-6.087-2.4,1,1,0,0,1-.81-.368l-4.166-5.116a1.778,1.778,0,0,0-2.94,1.974l3.324,6.094a1,1,0,1,1-1.756.958L9.363,39.384A3.778,3.778,0,0,1,12.679,33.8Z"/><path class="c" d="M26.177,27.43l2.886,2.164,4.174-2.5,1.354-2.708-1.906-.635a1,1,0,0,1-.238-.117L29.7,21.8H27.414l-1.2,1.2.678,1.355a1,1,0,0,1,.054.764Z"/><path class="c" d="M23.757,13.827l3.554-.889.794-1.589a1,1,0,0,1,.578-.5l1.906-.635L29.5,8.039a13.044,13.044,0,0,0-9.107,6.9L23.083,18.3l.773-.773-.8-2.413a1,1,0,0,1,.706-1.286Z"/><path class="c" d="M37,8.8v.763l.618,1.236H40.3a13.023,13.023,0,0,0-3.3-2Z"/><path class="c" d="M43.327,15.752l-1.88.94a1,1,0,0,1-.764.054l-2.177-.726-.447.893.817,3.266,2,1.331,1.42-1.42a1,1,0,0,1,1.656.391l.856,2.567a13.007,13.007,0,0,0-.876-7.417Z"/><path class="c" d="M19,20.8a13,13,0,0,0,24.778,5.5l-1.216-3.647-.856.856a1,1,0,0,1-1.262.125l-3-2a1,1,0,0,1-.415-.59l-1-4a1,1,0,0,1,.076-.69l1-2a1,1,0,0,1,1.211-.5l2.607.869,1.63-.815a1,1,0,0,1,.251-.086l.141-.028q-.329-.512-.7-.991H37a1,1,0,0,1-.894-.553l-1-2A1,1,0,0,1,35,9.8V8.148a12.992,12.992,0,0,0-3-.35c-.127,0-.253,0-.379.006l1.273,2.547a1,1,0,0,1-.578,1.4l-2.607.869-.815,1.63a1,1,0,0,1-.652.523l-2.952.738.659,1.975a1,1,0,0,1-.242,1.023l-2,2A1,1,0,0,1,23,20.8c-.018,0-.037,0-.055,0a1,1,0,0,1-.726-.374l-2.676-3.345A12.962,12.962,0,0,0,19,20.8Zm5.106,2.447a1,1,0,0,1,.188-1.154l2-2A1,1,0,0,1,27,19.8h3a1,1,0,0,1,.555.168l2.889,1.926,2.873.958a1,1,0,0,1,.578,1.4l-2,4a1,1,0,0,1-.38.41l-5,3A1,1,0,0,1,28.4,31.6l-4-3a1,1,0,0,1-.349-1.116l.869-2.607Z"/><path class="c" d="M52.881,38.427a1.778,1.778,0,0,0-2.94-1.974l-4.167,5.116a1.011,1.011,0,0,1-.81.368,8.245,8.245,0,0,0-6.088,2.4l-.474.474a8.149,8.149,0,0,0-2.4,5.8V59.8h8v-5a1,1,0,0,1,.375-.781l4.956-3.965L54.088,45.3l1.9-8.532L54.362,26.232A1.691,1.691,0,0,0,51,26.489v7.324c.106-.009.213-.015.32-.015a3.778,3.778,0,0,1,3.317,5.588l-3.325,6.094a1,1,0,1,1-1.756-.958Z"/></g></g></svg>