<svg xmlns="http://www.w3.org/2000/svg" xmlns:xlink="http://www.w3.org/1999/xlink" width="52" height="52" viewBox="0 0 52 52"><defs><style>.a{opacity:0.5;fill:url(#a);}.b{clip-path:url(#b);}.c{fill:#3f8ac5;}</style><linearGradient id="a" x1="0.5" x2="0.5" y2="1" gradientUnits="objectBoundingBox"><stop offset="0" stop-color="#00d3a8"/><stop offset="1" stop-color="#01c0cf"/></linearGradient><clipPath id="b"><rect class="a" width="52" height="52" transform="translate(701 768)"/></clipPath></defs><g class="b" transform="translate(-701 -768)"><g transform="translate(701 768)"><path class="c" d="M52,39.406A12.6,12.6,0,0,0,39.406,26.812c-.273,0-.544.012-.812.029a12.593,12.593,0,0,0-11.7,11.143,12.524,12.524,0,0,0,.2,4.062A12.594,12.594,0,0,0,52,39.406ZM39.406,47.734a8.328,8.328,0,1,1,8.328-8.328A8.328,8.328,0,0,1,39.406,47.734Z"/><path class="c" d="M41.031,33.719H38.188v4.469H33.719v2.844h7.312V38.188h0Z"/><path class="c" d="M9.344,0A1.423,1.423,0,0,0,7.922,1.422v6.7A1.423,1.423,0,0,0,9.344,9.547h1.219a1.423,1.423,0,0,0,1.422-1.422v-6.7A1.423,1.423,0,0,0,10.562,0Z"/><path class="c" d="M31.688,0a1.423,1.423,0,0,0-1.422,1.422v6.7a1.423,1.423,0,0,0,1.422,1.422h1.219a1.423,1.423,0,0,0,1.422-1.422v-6.7A1.423,1.423,0,0,0,32.906,0Z"/><path class="c" d="M3.25,42.047H23.359a15.437,15.437,0,0,1-.3-3.047c0-.342.015-.68.037-1.016h-17a2.437,2.437,0,0,1-2.438-2.438v-19.5H38.594v7.537c.269-.014.54-.021.812-.021a15.441,15.441,0,0,1,2.844.267V7.922A3.25,3.25,0,0,0,39,4.672H36.359V8.125a3.457,3.457,0,0,1-3.453,3.453H31.687a3.457,3.457,0,0,1-3.453-3.453V4.672H14.016V8.125a3.457,3.457,0,0,1-3.453,3.453H9.344A3.457,3.457,0,0,1,5.891,8.125V4.672H3.25A3.25,3.25,0,0,0,0,7.922V38.8A3.25,3.25,0,0,0,3.25,42.047Z"/><circle class="c" cx="3.225" cy="3.225" r="3.225" transform="translate(8.227 18.916)"/><circle class="c" cx="3.225" cy="3.225" r="3.225" transform="translate(17.9 18.916)"/><circle class="c" cx="3.225" cy="3.225" r="3.225" transform="translate(27.574 18.916)"/><circle class="c" cx="3.225" cy="3.225" r="3.225" transform="translate(17.9 28.666)"/><circle class="c" cx="3.225" cy="3.225" r="3.225" transform="translate(8.227 28.666)"/></g></g></svg>