<svg xmlns="http://www.w3.org/2000/svg" xmlns:xlink="http://www.w3.org/1999/xlink" width="52" height="52" viewBox="0 0 52 52"><defs><style>.a,.c{fill:#3f8ac5;}.a{stroke:#707070;}.b{clip-path:url(#a);}</style><clipPath id="a"><rect class="a" width="52" height="52" transform="translate(1257 768)"/></clipPath></defs><g transform="translate(-1257 -768)"><g class="b"><g transform="translate(1257 772.683)"><path class="c" d="M47.357,37.135V0L45.94.119A54.493,54.493,0,0,0,29.423,4.145L26.929,5.181V42.168l1.816-.755A56.687,56.687,0,0,1,45.83,37.259Zm0,0"/><path class="c" d="M52,5.49H49.214v32.5a.929.929,0,0,1-.852.929l-2.378.195q-1.03.085-2.053.211c-.221.027-.441.062-.661.093-.46.061-.919.123-1.376.2-.267.043-.531.092-.8.139-.409.072-.82.143-1.228.224-.279.056-.557.118-.842.179-.389.083-.778.167-1.164.259-.29.069-.579.142-.866.215-.376.093-.75.193-1.124.3-.291.08-.581.164-.871.249-.371.11-.737.221-1.1.338l-.861.278q-.551.186-1.1.384c-.278.1-.557.2-.842.309-.127.049-.254.1-.381.15H52Zm0,0"/><path class="c" d="M6.06.119,4.643,0V37.137l1.648.14a56.306,56.306,0,0,1,17.068,4.179l1.713.712V5.181L22.58,4.146A54.491,54.491,0,0,0,6.06.119Zm0,0"/><path class="c" d="M0,5.49V42.633H21.3c-.114-.045-.229-.093-.344-.136-.266-.1-.534-.2-.8-.3-.377-.137-.754-.27-1.134-.4q-.412-.139-.827-.271-.565-.186-1.134-.349c-.279-.082-.557-.164-.836-.242-.382-.106-.764-.206-1.148-.3-.278-.072-.557-.143-.842-.21-.389-.093-.78-.178-1.171-.262-.278-.06-.557-.122-.836-.177-.4-.08-.812-.151-1.218-.223l-.8-.141c-.449-.071-.9-.131-1.349-.192-.228-.03-.453-.067-.681-.092q-1.022-.124-2.043-.211l-2.5-.212a.929.929,0,0,1-.85-.929V5.49Zm0,0"/></g></g></g></svg>