<svg xmlns="http://www.w3.org/2000/svg" xmlns:xlink="http://www.w3.org/1999/xlink" width="52" height="52" viewBox="0 0 52 52"><defs><style>.a,.c{fill:#3f8ac5;}.a{opacity:0.5;}.b{clip-path:url(#a);}.d{fill:url(#b);}</style><clipPath id="a"><rect class="a" width="52" height="52" transform="translate(979 768)"/></clipPath><linearGradient id="b" x1="0.5" x2="0.5" y2="1" gradientUnits="objectBoundingBox"><stop offset="0" stop-color="#3f8ac5"/><stop offset="1" stop-color="#01c0cf"/></linearGradient></defs><g class="b" transform="translate(-979 -768)"><g transform="translate(979 768)"><path class="c" d="M47.959,20.486a3.429,3.429,0,0,0-1.9-5.849L34.68,12.984a.686.686,0,0,1-.516-.375L29.075,2.3a3.429,3.429,0,0,0-6.15,0l-5.088,10.31a.686.686,0,0,1-.516.375L5.942,14.637a3.429,3.429,0,0,0-1.9,5.849l8.233,8.025a.686.686,0,0,1,.2.607L10.529,40.451A3.429,3.429,0,0,0,15.5,44.066l10.177-5.35a.686.686,0,0,1,.638,0L36.5,44.066a3.429,3.429,0,0,0,4.975-3.615L39.528,29.119a.686.686,0,0,1,.2-.607Zm-11.134,9.1,1.944,11.332a.686.686,0,0,1-1,.723L27.6,36.288a3.429,3.429,0,0,0-3.192,0l-10.177,5.35a.686.686,0,0,1-1-.723l1.944-11.332a3.428,3.428,0,0,0-.986-3.035L5.957,18.522a.686.686,0,0,1,.38-1.17L17.715,15.7A3.429,3.429,0,0,0,20.3,13.823l5.088-10.31a.686.686,0,0,1,1.23,0h0L31.7,13.823A3.428,3.428,0,0,0,34.286,15.7l11.378,1.653a.686.686,0,0,1,.38,1.17l-8.233,8.025A3.428,3.428,0,0,0,36.824,29.583Z"/><path class="d" d="M42.025,2.3a1.372,1.372,0,0,0-1.916.3l-1.456,2a1.372,1.372,0,0,0,2.219,1.613l1.456-2A1.372,1.372,0,0,0,42.025,2.3Z"/><path class="d" d="M13.341,4.6l-1.456-2A1.372,1.372,0,1,0,9.666,4.206l1.456,2A1.372,1.372,0,1,0,13.341,4.6Z"/><path class="d" d="M5.033,31.162A1.372,1.372,0,0,0,3.3,30.282l-2.356.766A1.372,1.372,0,1,0,1.8,33.656l2.356-.766A1.372,1.372,0,0,0,5.033,31.162Z"/><path class="d" d="M26,46.392a1.372,1.372,0,0,0-1.372,1.372v2.477a1.372,1.372,0,0,0,2.743,0V47.764A1.372,1.372,0,0,0,26,46.392Z"/><path class="d" d="M51.052,31.049,48.7,30.284a1.372,1.372,0,0,0-.848,2.609l2.356.766a1.372,1.372,0,0,0,.848-2.609Z"/></g></g></svg>