<svg xmlns="http://www.w3.org/2000/svg" width="24" height="24" viewBox="0 0 24 24"><defs><style>.a{fill:#fff;}</style></defs><g transform="translate(0 0)"><path class="a" d="M8.75,17.612V22.25a.75.75,0,0,0,1.354.444L12.817,19Z" transform="translate(0 1)"/><path class="a" d="M23.685.146A.72.72,0,0,0,22.9.089L.4,12.427a.8.8,0,0,0-.4.758.783.783,0,0,0,.5.686l6.255,2.245L20.083,4.156,9.775,17.2l10.483,3.762A.734.734,0,0,0,20.5,21a.727.727,0,0,0,.39-.114.794.794,0,0,0,.352-.556L23.992.9a.807.807,0,0,0-.307-.758Z"/></g></svg>