<svg xmlns="http://www.w3.org/2000/svg" width="511.624" height="412.956" viewBox="0 0 511.624 412.956"><defs><style>.a{fill:#3f3d56;}.b{fill:#3f8ac5;}.c{opacity:0.1;}.d{fill:#2f2e41;}.e{fill:#a0616a;}.f{fill:#fff;}.g{fill:#d0cde1;}.h{fill:#fbbebe;}.i{fill:#b3b3b3;}.j{opacity:0.2;}.k{fill:#e6e6e6;}</style></defs><g transform="translate(-0.002 -0.661)"><path class="a" d="M689.893,324.826c-10.8,6.476-30.038,14.591-49.7,6.252l-12.709-5.391,25.468-28.55a121.633,121.633,0,1,1,36.94,27.689Zm-48.8-109.6A101.079,101.079,0,0,0,673.278,289.6l7.025,6.6-16.026,17.965c8.348-1.694,15.619-6.21,19.305-8.833l5.059-3.6,5.441,2.989A102.05,102.05,0,1,0,641.1,215.231Z" transform="translate(-353.067 -93.127)"/><path class="b" d="M638.315,222.143a111.889,111.889,0,1,1,58.114,98.163c-7.737,5.505-26.613,16.486-45.26,8.576l22.446-25.161A111.615,111.615,0,0,1,638.315,222.143Z" transform="translate(-360.179 -100.039)"/><path class="c" d="M917.794,222.561A111.937,111.937,0,0,0,815.755,111.069c3.26-.286,6.558-.44,9.893-.44a111.933,111.933,0,0,1,0,223.865c-3.329,0-6.622-.157-9.877-.441A111.939,111.939,0,0,0,917.794,222.561Z" transform="translate(-434.861 -100.215)"/><path class="a" d="M297.513,583.974a121.955,121.955,0,1,1,90.182-39.919l25.468,28.55L400.454,578c-19.661,8.339-38.9.225-49.7-6.252a122.11,122.11,0,0,1-53.242,12.23Zm0-223.865a102.039,102.039,0,1,0,49.063,191.527l5.432-2.985,5.059,3.6c3.687,2.623,10.957,7.139,19.305,8.832l-16.026-17.965,7.025-6.6a101.078,101.078,0,0,0,32.182-74.368A102.155,102.155,0,0,0,297.513,360.11Z" transform="translate(-165.38 -196.778)"/><path class="b" d="M416.78,469.534A111.888,111.888,0,1,0,358.666,567.7c7.737,5.505,26.613,16.486,45.26,8.576l-22.446-25.161A111.615,111.615,0,0,0,416.78,469.534Z" transform="translate(-172.715 -204.163)"/><path class="c" d="M212.7,468.558A111.938,111.938,0,0,1,314.74,357.066c-3.26-.286-6.559-.44-9.893-.44a111.932,111.932,0,0,0,0,223.865c3.329,0,6.622-.157,9.877-.442A111.937,111.937,0,0,1,212.7,468.558Z" transform="translate(-172.715 -203.753)"/><path class="d" d="M835.9,232.641c-7.324-12.375-21.813-12.951-21.813-12.951s-14.119-1.806-23.176,17.041c-8.442,17.567-20.093,34.527-1.876,38.64l3.291-10.242,2.038,11a71.28,71.28,0,0,0,7.794.133c19.509-.63,38.089.184,37.49-6.816C838.855,260.143,842.948,244.548,835.9,232.641Z" transform="translate(-419.555 -146.098)"/><path class="d" d="M792.1,424.494a28.887,28.887,0,0,1-.934,4.022c-.458,1.289-1.166,2.48-1.585,3.782-1.336,4.15.516,8.777,3.473,11.981a19.55,19.55,0,0,0,9.532,5.66,38.889,38.889,0,0,0,8.191.861c7.613.258,15.422.489,22.636-1.958a39.335,39.335,0,0,0,6.577-2.988,4.925,4.925,0,0,0,1.706-1.344,4.7,4.7,0,0,0,.616-2.756c-.016-3.227-.67-6.438-.515-9.662a38.3,38.3,0,0,0,.256-5.35,9.87,9.87,0,0,0-7.543-8.5,20.49,20.49,0,0,0-6.253,0,159.4,159.4,0,0,1-16.272.728c-5.551-.035-11.068-.883-16.591-.971-1.633-.026-1.6.477-2.121,2.058A38.511,38.511,0,0,0,792.1,424.494Z" transform="translate(-423.66 -229.581)"/><path class="e" d="M816.634,286.771a9.691,9.691,0,0,1-1.395,3.993c-.966,1.321-2.54,2.075-3.579,3.339-1.564,1.9-1.654,4.579-1.66,7.042-.006,2.269.04,4.688,1.305,6.572a11.485,11.485,0,0,0,3.291,2.9c4.745,3.2,9.871,6.452,15.592,6.558,2.37.044,4.911-.568,6.471-2.354a9.715,9.715,0,0,0,1.567-2.8,37.118,37.118,0,0,0,2.627-11.3,13.27,13.27,0,0,0-.5-5.428c-.695-1.938-2.1-3.532-3.029-5.369a11.952,11.952,0,0,1-1.15-7.072.764.764,0,0,0-.04-.513.747.747,0,0,0-.615-.249l-11.342-.817a24.687,24.687,0,0,1-3.149-.36c-.611-.124-2.226-.993-2.81-.762C817.139,280.585,816.855,285.612,816.634,286.771Z" transform="translate(-432.439 -171.552)"/><path class="c" d="M816.634,287.382a9.691,9.691,0,0,1-1.395,3.993c-.966,1.321-2.54,2.075-3.579,3.339-1.564,1.9-1.654,4.579-1.66,7.042-.006,2.269.04,4.688,1.305,6.572a11.485,11.485,0,0,0,3.291,2.9c4.745,3.2,9.871,6.452,15.592,6.558,2.37.044,4.911-.568,6.471-2.354a9.717,9.717,0,0,0,1.567-2.8,37.116,37.116,0,0,0,2.627-11.3,13.269,13.269,0,0,0-.5-5.428c-.695-1.937-2.1-3.532-3.029-5.369a11.951,11.951,0,0,1-1.15-7.073.764.764,0,0,0-.04-.513.746.746,0,0,0-.615-.249l-11.342-.817a24.682,24.682,0,0,1-3.149-.36c-.611-.124-2.226-.993-2.81-.762C817.139,281.2,816.855,286.224,816.634,287.382Z" transform="translate(-432.439 -171.809)"/><circle class="e" cx="16.641" cy="16.641" r="16.641" transform="translate(378.402 83.459)"/><path class="f" d="M821.116,321.782a10.207,10.207,0,0,0,2.923,2.336,9.184,9.184,0,0,0,3.652.7c3,.084,6.252-.465,8.338-2.622,2.69-2.78,2.6-7.264,4.71-10.507a2.34,2.34,0,0,1,.679-.743,2.2,2.2,0,0,1,1.156-.266c2.663-.025,4.982,1.7,7.076,3.348a9.318,9.318,0,0,1,2.491,2.537,8.6,8.6,0,0,1,.84,2.572,112.988,112.988,0,0,1,1.709,15.422c.184,2.853.369,5.709.355,8.569-.045,9.42-2.235,18.682-4.412,27.847-.281,1.181-.664,2.5-1.738,3.066a4.287,4.287,0,0,1-1.517.37,185.626,185.626,0,0,1-18.764,1.562q-3.675.057-7.347-.178a3.959,3.959,0,0,1-1.238-.216,3.49,3.49,0,0,1-1.349-1.146c-3.4-4.279-3.6-10.2-3.575-15.659q.08-20.035,1.432-40.039a4.4,4.4,0,0,0-.7-3.3,41.353,41.353,0,0,0,5.282,6.353Z" transform="translate(-434.587 -184.412)"/><path class="f" d="M800.732,295.6c-.562,1.017-4.706,3.544-5.506,4.387-4.47,4.711-12.627,4.534-16.715,9.58a15.724,15.724,0,0,0-2.735,6.224c-.777,3.137-1.192,6.557.11,9.515,1.253,2.846,3.89,4.813,5.681,7.355,1.966,2.791,2.85,6.18,3.7,9.487a21.836,21.836,0,0,1,1.013,7.453c-.277,2.853-1.657,5.465-2.472,8.213s-.956,6.02.929,8.18c1.385,1.586,3.556,2.215,5.632,2.569a64.7,64.7,0,0,0,8.027.7c2.373.1,4.988.125,6.812-1.4a6.849,6.849,0,0,0,2.146-5.02,32.41,32.41,0,0,0-.553-5.586c-.253-1.926-.35-3.869-.432-5.81q-.547-13.064-.149-26.145a22.251,22.251,0,0,0-.265-5.425,29.734,29.734,0,0,0-2.822-6.561,24.827,24.827,0,0,1-2.753-13.116C800.7,295.532,802.732,291.976,800.732,295.6Z" transform="translate(-417.728 -177.44)"/><path class="f" d="M855.571,294.771c.856.88,3.765,1.17,4.854,1.737a17,17,0,0,0,3.191,1.1,41.426,41.426,0,0,1,11.21,5.145,6.8,6.8,0,0,1,1.874,1.619,7.421,7.421,0,0,1,1.037,2.928,24.92,24.92,0,0,1-.893,16.361l-3.19,10.2c-2.382,7.614-4.778,15.3-5.448,23.252a54.692,54.692,0,0,0,.491,13.206,1.565,1.565,0,0,1-.161,1.279,1.26,1.26,0,0,1-.781.359c-1.54.241-3.03-.544-4.425-1.239a49.006,49.006,0,0,0-13.509-4.42,31.406,31.406,0,0,0,4.2-8.65,52.371,52.371,0,0,0,1.268-5.949l1.484-8.584a84.339,84.339,0,0,0,1.273-9.493,11.884,11.884,0,0,0-.207-3.576,17.351,17.351,0,0,0-1.356-3.225,27.554,27.554,0,0,1-2.631-16.457c.421-2.434,1.24-4.872.9-7.319-.328-2.353.013-4.181-.591-6.509C851.676,286.981,853.961,293.115,855.571,294.771Z" transform="translate(-449.199 -176.26)"/><path class="f" d="M778.077,329.751c-1.115,2.314-2.979,4.285-3.614,6.774a14.8,14.8,0,0,0-.315,3.541,16.816,16.816,0,0,0,.525,5.324c.354,1.1.93,2.11,1.345,3.186a11.553,11.553,0,0,1,.757,4.72c-.112,2.229-.869,4.393-.928,6.624-.093,3.508,1.53,6.807,3.113,9.939a7.306,7.306,0,0,1,10.62-3.477,2.178,2.178,0,0,0,.479-1.588q.176-6.106.339-12.211c.171-6.3.335-12.675-1.113-18.8a17.741,17.741,0,0,0-3.536-7.67c-.982-1.13-4.316-4.107-5.928-2.841-.725.569-.556,2.119-.67,2.9a12.319,12.319,0,0,1-1.072,3.579Z" transform="translate(-417.336 -189.583)"/><path class="f" d="M886.146,318.868a17.036,17.036,0,0,1,.569,5.122q.032,5.278-.14,10.555a19.682,19.682,0,0,1-.686,5.344c-.36,1.132-.916,2.194-1.288,3.323-1.115,3.382-.506,7.051-.41,10.611a12.06,12.06,0,0,1-.292,3.432c-.588,2.207-2.169,3.99-3.272,5.99-1.048,1.9-1.68,4.028-2.932,5.8s-3.418,3.176-5.518,2.632a6.092,6.092,0,0,1-3.5-3.266,16.02,16.02,0,0,1-1.656-10.391c.785-4.321,3.323-8.154,4.238-12.449,1.257-5.9-.653-11.984-.6-18.015a8.709,8.709,0,0,1,.38-2.792,11.688,11.688,0,0,1,2.464-3.582,45.228,45.228,0,0,0,3.312-4.346c.682-1.017,1.608-3.633,2.817-3.85C882.332,312.5,885.476,316.783,886.146,318.868Z" transform="translate(-456.333 -185.369)"/><path class="d" d="M745.619,424.329a16.424,16.424,0,0,0-4.569-.486,11.4,11.4,0,0,0-10.587,13.443,19.151,19.151,0,0,0,1.811,4.947,16.529,16.529,0,0,0,4.908,6.488,19.118,19.118,0,0,0,4.332,2.062l11.815,4.451c1.738.655,3.476,1.31,5.232,1.917a102.33,102.33,0,0,0,27.325,5.432,29.587,29.587,0,0,0,8.484-.43,2.762,2.762,0,0,0,1.738-.939,2.975,2.975,0,0,0,.388-1.282l.727-5.09a4.262,4.262,0,0,0-.062-2.145,4.109,4.109,0,0,0-1.964-1.851c-7.767-4.461-16.836-6.922-23.374-13.045-1.539-1.441-2.827-3.726-4.7-4.705-2.121-1.11-4.618-1.744-6.81-2.767C755.523,428.093,750.812,425.523,745.619,424.329Z" transform="translate(-398.884 -232.04)"/><path class="c" d="M773.292,435.688c4.176,1.309,21.807,10.374,24.829,13.539-.405.146-14.149-7.556-14.561-7.68a83.037,83.037,0,0,1-11.078-3.9c-.716-.331-4.653-1.888-4.474-2.792C768.209,433.832,772.551,435.455,773.292,435.688Z" transform="translate(-414.762 -236.537)"/><path class="e" d="M854.653,487.454a.981.981,0,0,0,.662-.195,1.022,1.022,0,0,0,.207-.762l-.019-6.934a21.313,21.313,0,0,0-6.413-1.547l-10.214-1.365c.235.031-1.6,4.4-1.316,4.982.5,1.028,4.278,1.939,5.346,2.424C846.616,485.744,850.473,487.6,854.653,487.454Z" transform="translate(-444.026 -254.27)"/><path class="e" d="M807.185,478.02c-1.928.307-4.081.579-5.33,2.08-1.584,1.9-.91,4.742-.154,7.1a2.3,2.3,0,0,0,2.686,1.921c1.759.111,3.63.2,5.167-.664a22.64,22.64,0,0,0,2.007-1.492,12.868,12.868,0,0,1,3.691-1.687,37.312,37.312,0,0,1,7.408-1.527,11.525,11.525,0,0,0,2.918-.514,3.234,3.234,0,0,0,2.055-2c.356-1.26-.376-2.545-1.079-3.65a14.563,14.563,0,0,0-3.106-3.839c-1.9-1.478-2.845-.344-4.762.6A40.4,40.4,0,0,1,807.185,478.02Z" transform="translate(-428.605 -252.75)"/><path class="d" d="M786.12,481.362l-12.245-3.619a16.211,16.211,0,0,0-4.557-.883,5.471,5.471,0,0,0-4.185,1.692,8.15,8.15,0,0,0-1.458,4.082l-.506,3.091a15.521,15.521,0,0,0-.284,4.746,5.248,5.248,0,0,0,2.433,3.91c1.695.924,3.771.473,5.663.086a61.653,61.653,0,0,1,11.6-1.244,9.313,9.313,0,0,0,4.3-.686,5.366,5.366,0,0,0,2.619-4.276C789.743,485.622,788.863,482.173,786.12,481.362Z" transform="translate(-412.58 -254.356)"/><path class="d" d="M871.638,477.4c1.587-.278,2.988-1.18,4.51-1.713a20.057,20.057,0,0,1,6.73-.741,4.32,4.32,0,0,1,2.413.483c1,.665,1.255,2,1.425,3.185l1.025,7.17a11.248,11.248,0,0,1,.084,4.062,3.821,3.821,0,0,1-2.525,2.952c-1.6.416-3.171-.607-4.683-1.279-3.779-1.679-8.172-1.25-12.112-2.505a2.715,2.715,0,0,1-1.813-1.3,2.948,2.948,0,0,1-.141-1.239c.067-2.3-.419-5.451.275-7.654C867.45,476.839,869.866,477.4,871.638,477.4Z" transform="translate(-456.197 -253.543)"/><path class="d" d="M883.061,419.242a21.265,21.265,0,0,1,7.491-.512,9.4,9.4,0,0,1,5.528,2.164c1.78,1.687,2.351,4.3,2.4,6.748a21.082,21.082,0,0,1-4.582,13.464,12.214,12.214,0,0,1-2.62,2.522,17.243,17.243,0,0,1-3.408,1.643l-26.458,10.436a170.945,170.945,0,0,1-21.206,7.309,1.653,1.653,0,0,1-2.224-.806,54.815,54.815,0,0,1-5.8-10.608.715.715,0,0,1,.316-1.127l18.714-10.753a18.922,18.922,0,0,0,3.809-2.624,9.454,9.454,0,0,0,1.956-2.723c.388-.81.424-2.722.92-3.321s2.145-.633,2.911-.864a26.419,26.419,0,0,0,3.169-1.2c4.186-1.873,7.914-4.594,11.927-6.787A30.6,30.6,0,0,1,883.061,419.242Z" transform="translate(-441.707 -229.838)"/><path class="c" d="M880.007,432.083c-3.215,2.415-7.378,4.635-10.565,7.113-1.088.846-19.217,11.038-19.473,12.392,2.973.5,21.91-12.747,24.62-14.069a43.754,43.754,0,0,0,7.491-5.037c.607-.472,3.177-1.889,1.436-2.416C882.535,429.769,880.731,431.6,880.007,432.083Z" transform="translate(-449.262 -234.649)"/><path class="g" d="M839.76,297.693H811.537a4.323,4.323,0,0,0-4.323,4.323V303.6h-.307v3.541h.307v2.478h-.307v2.124h.307v26.124a4.323,4.323,0,0,0,4.323,4.323H839.76a4.323,4.323,0,0,0,4.323-4.323V302.016a4.323,4.323,0,0,0-4.323-4.323Z" transform="translate(-431.137 -178.948)"/><path class="d" d="M685.6,141.451l-14.314-7.5-19.768,3.068-4.09,18.064,10.181-.392,2.844-6.636v6.527l4.7-.181,2.726-10.566,1.7,11.247,16.7-.341Z" transform="translate(-272.496 -56.101)"/><path class="e" d="M785.359,382.187a7.438,7.438,0,0,0,2.672,2.658,5.225,5.225,0,0,0,4.593-.123,8.084,8.084,0,0,0,3.315-3.323,16.539,16.539,0,0,0,1.684-9.185c-.194-3.151-.867-6.254-1.165-9.4-.216-2.285-.234-4.583-.251-6.878a2.287,2.287,0,0,1,.289-1.391,2.731,2.731,0,0,1,1.534-.766c3.14-.933,5.224-3.876,6.718-6.791a11.769,11.769,0,0,0,1.673-6.252c-.192-2.179-1.758-4.373-3.934-4.6-1.794-.183-3.45.956-4.744,2.212a20.342,20.342,0,0,0-5.956,11.9c-.284,2.215-.2,4.491-.805,6.641-1.286,4.592-5.312,7.407-7.317,11.539C781.453,372.991,782.673,378.159,785.359,382.187Z" transform="translate(-420.872 -195.123)"/><path class="e" d="M876.091,354.694a8.678,8.678,0,0,1-4.866,4.676,6.721,6.721,0,0,1-4.23.259,4.691,4.691,0,0,1-3.1-2.772,7.468,7.468,0,0,1-.349-2.082,21.454,21.454,0,0,1,1-9.179c.434-1.115,1.019-2.173,1.361-3.32a16.655,16.655,0,0,0,.513-4.052l.37-8.449a5.5,5.5,0,0,0-.126-1.832,5.79,5.79,0,0,0-2.56-2.746c-2.532-1.761-5.034-3.815-6.26-6.644a4.659,4.659,0,0,1-.433-2.752c.346-1.678,2.039-2.764,3.712-3.13a8.3,8.3,0,0,1,9.955,6.692c.166.953.163,1.927.26,2.89.206,2.042.854,4.011,1.26,6.024,1,4.957.481,10.08,1.47,15.036C874.9,347.456,878.011,350.16,876.091,354.694Z" transform="translate(-452.373 -185.172)"/><circle class="b" cx="3.541" cy="3.541" r="3.541" transform="translate(391.348 130.67)"/><circle class="d" cx="10.444" cy="10.444" r="10.444" transform="translate(0.002 240.571)"/><path class="h" d="M71.91,482.794,66.65,477.68l-10.564,3.281L57.1,493.193l21.72-1.009-6.673-9.067Z" transform="translate(-23.605 -200.772)"/><circle class="h" cx="16.886" cy="16.886" r="16.886" transform="translate(19.914 248.146)"/><path class="d" d="M395.818,617.061s20.744,35.649,25.681,41a89.626,89.626,0,0,0,7.491,7.466s-2.321,7.7-6.018,7.424a17.394,17.394,0,0,1-6.1-1.5s-1.65-4.277-4.528-6.152-26.389-25.006-25.84-32.4S395.818,617.061,395.818,617.061Z" transform="translate(-254.192 -313.367)"/><path class="d" d="M275.023,688.275s22.118,17.167,52.177,1.036l2.59-1.906s-4.372,9.834-4.777,12.5c-.47,3.092-11.852,21.2-13.709,22.069a4.818,4.818,0,0,0-2.267,1.668l7.882,8.675,2.914-2.145s11.363-16.1,14.687-19.045,19.158-33.317,19.158-33.317,6.054-11.444-9.055-12.3-22.062,3.258-22.062,3.258l-26.815,4.26Z" transform="translate(-207.273 -333.707)"/><path class="d" d="M448.739,697.841l11.187,7.74s14.273,4.472,5.481,7.448-31.96,4.052-32.486-.053.914-10.568,2.07-10.215S444.169,705.2,448.739,697.841Z" transform="translate(-273.684 -347.366)"/><path class="d" d="M340.441,768.693l2.071,11.371s5.888,11.26-1.182,7.766-21.634-16.765-19.483-19.547,6.9-5.8,7.38-4.893S333.276,770.366,340.441,768.693Z" transform="translate(-226.891 -374.885)"/><path class="f" d="M268.791,638.18s-15.035,17.554-24.163,13.29-46.473-53.654-42.209-62.781,5.694-7.185,5.694-7.185l19.282,1.783-5.548-8.9a3.753,3.753,0,0,1,5.059.77c2.468,2.676,12.379,9.36,15.831,18.8s13.588,8.969,13.588,8.969Z" transform="translate(-176.573 -295.13)"/><path class="a" d="M228.174,500.046l-26.063,27.666-23.347-41.221,22.2-26.817Z" transform="translate(-75.239 -193.193)"/><path class="f" d="M228.077,501.412l-23.54,24.312L183.206,488.26l19.562-24.629Z" transform="translate(-77.108 -194.859)"/><path class="i" d="M190.471,575.336l1.277,1.057-.819,1.6L154.485,588.84l-.345-1.249,1.658-1.715Z" transform="translate(-64.875 -241.874)"/><path class="g" d="M175.491,546.964l-37.739,11.8-23.005-43.47,37.073-9.313Z" transform="translate(-48.295 -212.683)"/><path class="a" d="M200.5,544.128l-1.619,1.191-17.97-31.2,1.857-.868Z" transform="translate(-76.141 -215.743)"/><path class="a" d="M183.544,547.062l-15.964,4.76-18.123-32.087,15.794-3.636Z" transform="translate(-62.904 -216.942)"/><path class="h" d="M287.218,620.637l3.305-.935s18.433-2.084,18.7,3.708-21.176,3.1-21.176,3.1l-2.86-3.886Z" transform="translate(-211.552 -314.325)"/><path class="h" d="M313.617,656.785l4.6-1.888s13.887-6.227,9.9-10.283-16.27,2.988-16.27,2.988l-2.352,2.23Z" transform="translate(-221.784 -324.434)"/><path class="f" d="M264.938,635.266s7.491,7.466,5.786,9.219-29.655,24.819-36.584,17.439-40.687-44.434-27.551-47.612,16.606,4.252,16.606,4.252l17.341,29.668Z" transform="translate(-177.205 -311.877)"/><path class="f" d="M112.1,518.781l12.3,4.172-.2,8.884-13.014-1.4Z" transform="translate(-46.799 -218.071)"/><path class="j" d="M111.27,554.6l-13.258,7.76-15.147-23.3,14.621,19.19Z" transform="translate(-34.876 -226.606)"/><circle class="d" cx="20.102" cy="20.102" r="20.102" transform="translate(9.286 240.034)"/><path class="b" d="M228.07,512.084l-14.075-20.59,5.967-7.386,14.625,21.184Z" transform="translate(-90.067 -203.477)"/><path class="k" d="M222.041,523.143l-21.428-31.152,1.057-1.277L223,521.94Z" transform="translate(-84.435 -206.258)"/><path class="k" d="M217.273,528.376l-21.428-31.152,1.057-1.277,21.328,31.226Z" transform="translate(-82.428 -208.46)"/><path class="k" d="M213.211,532.227l-21.428-31.152,1.057-1.277,21.328,31.226Z" transform="translate(-80.718 -210.081)"/><path class="d" d="M66.117,425.544h6.218a11.872,11.872,0,0,1,11.872,11.872H66.117Z" transform="translate(-27.827 -178.828)"/><path class="a" d="M367.489,505.565l-1.127-.084c-.044.586-.075,1.176-.112,1.764l-5.06-.169,5.308,9.946,5.961-9.569-5.079-.17C367.416,506.71,367.446,506.136,367.489,505.565Z" transform="translate(-243.54 -266.404)"/><path class="a" d="M423.317,361.789l.9.686c1.348-1.766,2.756-3.529,4.185-5.239l-.868-.725C426.093,358.235,424.675,360.011,423.317,361.789Z" transform="translate(-269.689 -203.704)"/><path class="a" d="M438.272,344.177l.835.762c1.5-1.643,3.057-3.274,4.628-4.849l-.8-.8C441.352,340.879,439.783,342.522,438.272,344.177Z" transform="translate(-275.983 -196.457)"/><path class="a" d="M454.736,327.981l.765.833c1.64-1.506,3.334-2.994,5.034-4.422l-.727-.866C458.095,324.965,456.389,326.464,454.736,327.981Z" transform="translate(-282.912 -189.821)"/><path class="a" d="M409.991,380.686l.956.6c1.188-1.88,2.436-3.761,3.709-5.59l-.928-.646C412.445,376.9,411.188,378.792,409.991,380.686Z" transform="translate(-264.08 -211.509)"/><path class="a" d="M472.579,313.326l.688.9c1.767-1.356,3.584-2.689,5.4-3.961l-.648-.926C476.189,310.617,474.359,311.96,472.579,313.326Z" transform="translate(-290.422 -183.849)"/><path class="a" d="M398.406,400.724l1.005.517c1.019-1.981,2.1-3.965,3.2-5.9l-.982-.561C400.517,396.728,399.432,398.727,398.406,400.724Z" transform="translate(-259.204 -219.811)"/><path class="a" d="M377.661,459.792l-1.095-.282c-.559,2.169-1.076,4.382-1.537,6.575l1.106.233C376.594,464.141,377.107,461.945,377.661,459.792Z" transform="translate(-249.365 -247.055)"/><path class="a" d="M491.665,300.328l.607.954c1.874-1.192,3.8-2.359,5.727-3.468l-.564-.98C495.494,297.951,493.553,299.126,491.665,300.328Z" transform="translate(-298.455 -178.587)"/><path class="a" d="M373.308,482.51l-1.116-.183c-.363,2.207-.682,4.456-.948,6.685l1.123.134C372.632,486.934,372.948,484.7,373.308,482.51Z" transform="translate(-247.772 -256.659)"/><path class="a" d="M388.661,421.753l1.047.426c.838-2.063,1.735-4.137,2.665-6.163l-1.027-.472C390.409,417.585,389.505,419.675,388.661,421.753Z" transform="translate(-255.102 -228.551)"/><path class="a" d="M380.841,443.615l1.081.33c.652-2.133,1.361-4.28,2.106-6.38l-1.066-.378C382.212,439.3,381.5,441.465,380.841,443.615Z" transform="translate(-251.811 -237.66)"/><path class="a" d="M623.7,263.065c2.217-.077,4.473-.107,6.706-.086l.01-1.131c-2.248-.021-4.523.01-6.754.087Z" transform="translate(-354.013 -163.859)"/><path class="a" d="M511.845,289.093l.52,1c1.974-1.023,4-2.014,6.008-2.946l-.475-1.026C515.87,287.063,513.834,288.062,511.845,289.093Z" transform="translate(-306.949 -174.079)"/><path class="a" d="M669.93,265.574c2.206.312,4.431.678,6.616,1.086l.208-1.111c-2.2-.412-4.443-.78-6.666-1.095Z" transform="translate(-373.485 -164.959)"/><path class="a" d="M692.685,269.845c2.165.506,4.35,1.068,6.493,1.67l.306-1.089c-2.159-.607-4.36-1.173-6.542-1.682Z" transform="translate(-383.062 -166.764)"/><path class="a" d="M714.969,276.13c2.111.7,4.237,1.451,6.318,2.242l.4-1.057c-2.1-.8-4.239-1.557-6.366-2.259Z" transform="translate(-392.442 -169.421)"/><path class="a" d="M646.886,263.338c2.226.117,4.476.285,6.687.5l.109-1.125c-2.228-.216-4.494-.385-6.737-.5Z" transform="translate(-363.786 -164.014)"/><path class="a" d="M600.423,263.337l.138,1.122c2.2-.271,4.447-.5,6.668-.672l-.088-1.127C604.9,262.836,602.643,263.064,600.423,263.337Z" transform="translate(-344.23 -164.204)"/><path class="a" d="M554.878,272.249l.335,1.08c2.125-.658,4.293-1.277,6.445-1.84l-.286-1.094C559.2,270.963,557.018,271.586,554.878,272.249Z" transform="translate(-325.061 -167.459)"/><path class="a" d="M532.961,279.711l.429,1.046c2.056-.844,4.155-1.651,6.241-2.4l-.382-1.064C537.147,278.047,535.032,278.861,532.961,279.711Z" transform="translate(-315.836 -170.362)"/><path class="a" d="M577.434,266.776l.237,1.106c2.172-.466,4.387-.889,6.583-1.259l-.188-1.115C581.854,265.881,579.622,266.307,577.434,266.776Z" transform="translate(-334.555 -165.402)"/><path class="a" d="M746.837,286.067l-6.318-9.337L738.3,281.3c-.538-.24-1.073-.485-1.61-.718l-.449,1.038c.525.227,1.043.465,1.565.7l-2.211,4.551Z" transform="translate(-401.121 -170.125)"/></g></svg>