<svg xmlns="http://www.w3.org/2000/svg" width="372" height="300.259" viewBox="0 0 372 300.259"><defs><style>.a{fill:#3f3d56;}.b{fill:#3f8ac5;}.c{opacity:0.1;}.d{fill:#2f2e41;}.e{fill:#a0616a;}.f{fill:#fff;}.g{fill:#d0cde1;}.h{fill:#fbbebe;}.i{fill:#b3b3b3;}.j{opacity:0.2;}.k{fill:#e6e6e6;}</style></defs><path class="a" d="M671.206,261.775c-7.852,4.709-21.841,10.609-36.136,4.546l-9.241-3.92,18.518-20.758a88.439,88.439,0,1,1,26.859,20.133Zm-35.48-79.686a73.494,73.494,0,0,0,23.4,54.073l5.108,4.8L652.58,254.024a38.9,38.9,0,0,0,14.037-6.422l3.678-2.617,3.956,2.174a74.2,74.2,0,1,0-38.526-65.069Z" transform="translate(-426.302 -93.788)"/><path class="b" d="M638.315,191.6a81.354,81.354,0,1,1,42.255,71.374c-5.626,4-19.35,11.987-32.908,6.236l16.32-18.295A81.155,81.155,0,0,1,638.315,191.6Z" transform="translate(-436.084 -103.296)"/><path class="c" d="M889.948,192.015a81.389,81.389,0,0,0-74.193-81.066c2.371-.208,4.769-.32,7.193-.32a81.386,81.386,0,0,1,0,162.772c-2.421,0-4.815-.114-7.182-.321A81.39,81.39,0,0,0,889.948,192.015Z" transform="translate(-538.81 -103.538)"/><path class="a" d="M264.212,517.408a88.673,88.673,0,1,1,65.571-29.025L348.3,509.141l-9.241,3.92c-14.3,6.064-28.284.163-36.136-4.546A88.786,88.786,0,0,1,264.212,517.408Zm0-162.771a74.193,74.193,0,1,0,35.674,139.258l3.949-2.17,3.678,2.617a38.9,38.9,0,0,0,14.037,6.422L309.9,487.7,315,482.9a73.494,73.494,0,0,0,23.4-54.073A74.277,74.277,0,0,0,264.212,354.636Z" transform="translate(-168.14 -236.359)"/><path class="b" d="M355.686,438.988a81.354,81.354,0,1,0-42.255,71.374c5.626,4,19.35,11.987,32.908,6.236L330.02,498.3A81.155,81.155,0,0,0,355.686,438.988Z" transform="translate(-178.229 -246.518)"/><path class="c" d="M207.3,438.012a81.389,81.389,0,0,1,74.193-81.066c-2.371-.208-4.769-.32-7.193-.32a81.386,81.386,0,1,0,0,162.771c2.421,0,4.815-.114,7.182-.321A81.389,81.389,0,0,1,207.3,438.012Z" transform="translate(-178.229 -245.953)"/><path class="d" d="M820.479,229.094c-5.325-9-15.86-9.417-15.86-9.417s-10.266-1.313-16.851,12.391c-6.138,12.773-14.61,25.1-1.364,28.095l2.393-7.447,1.482,8a51.827,51.827,0,0,0,5.667.1c14.185-.458,27.694.134,27.259-4.956C822.627,249.091,825.6,237.751,820.479,229.094Z" transform="translate(-517.757 -166.65)"/><path class="d" d="M791.294,422.719a21.014,21.014,0,0,1-.679,2.924c-.333.937-.848,1.8-1.152,2.75-.971,3.018.375,6.382,2.525,8.711a14.215,14.215,0,0,0,6.93,4.115,28.276,28.276,0,0,0,5.956.626c5.536.188,11.214.356,16.459-1.423a28.6,28.6,0,0,0,4.782-2.172,3.58,3.58,0,0,0,1.241-.977,3.414,3.414,0,0,0,.448-2c-.012-2.347-.487-4.681-.374-7.025a27.852,27.852,0,0,0,.186-3.89,7.176,7.176,0,0,0-5.484-6.182,14.9,14.9,0,0,0-4.546,0,115.893,115.893,0,0,1-11.832.529c-4.036-.026-8.047-.642-12.064-.706-1.188-.019-1.164.347-1.542,1.5A28.006,28.006,0,0,0,791.294,422.719Z" transform="translate(-523.402 -281.48)"/><path class="e" d="M814.824,284.955a7.046,7.046,0,0,1-1.014,2.9c-.7.96-1.847,1.509-2.6,2.428-1.137,1.383-1.2,3.33-1.207,5.12a6.308,6.308,0,0,0,3.342,6.888c3.45,2.325,7.178,4.691,11.337,4.768a6.028,6.028,0,0,0,4.705-1.711,7.064,7.064,0,0,0,1.139-2.032,26.988,26.988,0,0,0,1.91-8.216,9.648,9.648,0,0,0-.364-3.947,36.425,36.425,0,0,0-2.2-3.9,8.69,8.69,0,0,1-.836-5.142.555.555,0,0,0-.029-.373.543.543,0,0,0-.447-.181l-8.247-.594a17.951,17.951,0,0,1-2.29-.262c-.445-.09-1.619-.722-2.043-.554C815.191,280.458,814.985,284.113,814.824,284.955Z" transform="translate(-535.478 -201.661)"/><path class="c" d="M814.824,285.567a7.046,7.046,0,0,1-1.014,2.9c-.7.96-1.847,1.509-2.6,2.428-1.137,1.383-1.2,3.33-1.207,5.12a6.308,6.308,0,0,0,3.342,6.888c3.45,2.325,7.177,4.691,11.337,4.768a6.028,6.028,0,0,0,4.705-1.711,7.063,7.063,0,0,0,1.139-2.032,26.987,26.987,0,0,0,1.91-8.216,9.648,9.648,0,0,0-.364-3.947,36.442,36.442,0,0,0-2.2-3.9,8.69,8.69,0,0,1-.836-5.142.555.555,0,0,0-.029-.373.543.543,0,0,0-.447-.181l-8.247-.594a17.946,17.946,0,0,1-2.29-.262c-.445-.09-1.619-.722-2.043-.554C815.191,281.069,814.985,284.725,814.824,285.567Z" transform="translate(-535.478 -202.014)"/><circle class="e" cx="12.099" cy="12.099" r="12.099" transform="translate(275.133 60.202)"/><path class="f" d="M819.475,318.751a7.422,7.422,0,0,0,2.125,1.7,6.677,6.677,0,0,0,2.655.506c2.181.061,4.545-.338,6.063-1.906,1.956-2.021,1.891-5.281,3.424-7.639a1.7,1.7,0,0,1,.494-.54,1.6,1.6,0,0,1,.84-.193c1.936-.018,3.623,1.238,5.145,2.434a6.777,6.777,0,0,1,1.811,1.845,6.252,6.252,0,0,1,.611,1.87,82.16,82.16,0,0,1,1.243,11.213c.134,2.075.268,4.151.258,6.23-.033,6.849-1.625,13.584-3.208,20.248a3.164,3.164,0,0,1-1.264,2.23,3.116,3.116,0,0,1-1.1.269,134.97,134.97,0,0,1-13.643,1.136q-2.672.041-5.342-.129a2.878,2.878,0,0,1-.9-.157,2.538,2.538,0,0,1-.981-.833c-2.469-3.112-2.615-7.413-2.6-11.386q.058-14.568,1.041-29.112a3.2,3.2,0,0,0-.511-2.4,30.078,30.078,0,0,0,3.841,4.619Z" transform="translate(-538.432 -219.349)"/><path class="f" d="M793.723,295.19c-.409.74-3.422,2.577-4,3.19-3.25,3.426-9.181,3.3-12.153,6.966a11.432,11.432,0,0,0-1.989,4.525c-.565,2.281-.867,4.768.08,6.918.911,2.069,2.829,3.5,4.13,5.348a20.6,20.6,0,0,1,2.688,6.9,15.877,15.877,0,0,1,.736,5.419c-.2,2.074-1.205,3.973-1.8,5.971s-.695,4.377.675,5.948a6.785,6.785,0,0,0,4.095,1.868,47.048,47.048,0,0,0,5.836.508c1.725.076,3.627.091,4.953-1.015a4.98,4.98,0,0,0,1.56-3.65,23.567,23.567,0,0,0-.4-4.062c-.184-1.4-.255-2.813-.314-4.225q-.4-9.5-.109-19.01a16.181,16.181,0,0,0-.192-3.945,21.622,21.622,0,0,0-2.052-4.77,18.052,18.052,0,0,1-2-9.536C793.7,295.144,795.177,292.558,793.723,295.19Z" transform="translate(-515.243 -209.76)"/><path class="f" d="M854,293.825c.622.64,2.738.851,3.529,1.263a12.364,12.364,0,0,0,2.32.8,30.12,30.12,0,0,1,8.15,3.741,4.946,4.946,0,0,1,1.363,1.177,5.4,5.4,0,0,1,.754,2.129,18.12,18.12,0,0,1-.649,11.9l-2.32,7.416c-1.732,5.536-3.474,11.126-3.961,16.906a39.766,39.766,0,0,0,.357,9.6,1.138,1.138,0,0,1-.117.93.916.916,0,0,1-.568.261,5.572,5.572,0,0,1-3.218-.9,35.632,35.632,0,0,0-9.822-3.214,22.834,22.834,0,0,0,3.051-6.289,38.084,38.084,0,0,0,.922-4.325l1.079-6.242a61.323,61.323,0,0,0,.926-6.9,8.642,8.642,0,0,0-.15-2.6,12.619,12.619,0,0,0-.986-2.345,20.034,20.034,0,0,1-1.913-11.966c.306-1.77.9-3.543.653-5.322-.239-1.711.009-3.04-.43-4.733C851.169,288.161,852.831,292.621,854,293.825Z" transform="translate(-558.531 -208.137)"/><path class="f" d="M777,327.9c-.811,1.682-2.166,3.116-2.628,4.926a10.759,10.759,0,0,0-.229,2.575,12.229,12.229,0,0,0,.382,3.871c.258.8.677,1.534.978,2.317a8.4,8.4,0,0,1,.55,3.432c-.081,1.621-.632,3.194-.675,4.816-.068,2.551,1.112,4.949,2.264,7.227a5.312,5.312,0,0,1,7.722-2.528,1.583,1.583,0,0,0,.348-1.154q.128-4.439.246-8.879c.125-4.577.243-9.216-.81-13.672a12.9,12.9,0,0,0-2.571-5.577c-.714-.822-3.138-2.986-4.31-2.066-.527.414-.4,1.541-.488,2.112a8.96,8.96,0,0,1-.78,2.6Z" transform="translate(-514.704 -226.463)"/><path class="f" d="M880.858,317.253a12.387,12.387,0,0,1,.414,3.724q.023,3.838-.1,7.674a14.31,14.31,0,0,1-.5,3.885c-.262.823-.666,1.6-.936,2.416-.81,2.459-.368,5.127-.3,7.715a8.769,8.769,0,0,1-.212,2.5c-.428,1.6-1.577,2.9-2.379,4.355a42.827,42.827,0,0,1-2.131,4.217c-.91,1.288-2.485,2.309-4.012,1.913a4.429,4.429,0,0,1-2.547-2.375,11.648,11.648,0,0,1-1.2-7.555c.571-3.142,2.416-5.929,3.082-9.052.914-4.288-.475-8.714-.434-13.1a6.332,6.332,0,0,1,.276-2.03,8.5,8.5,0,0,1,1.791-2.6,32.881,32.881,0,0,0,2.408-3.16c.5-.74,1.169-2.641,2.048-2.8C878.085,312.622,880.371,315.736,880.858,317.253Z" transform="translate(-568.344 -220.666)"/><path class="d" d="M741.432,424.194a11.94,11.94,0,0,0-3.322-.353,8.292,8.292,0,0,0-7.7,9.774,13.925,13.925,0,0,0,1.317,3.6,12.018,12.018,0,0,0,3.569,4.718,13.9,13.9,0,0,0,3.15,1.5l8.59,3.236c1.264.476,2.528.952,3.8,1.394a74.4,74.4,0,0,0,19.868,3.95,21.514,21.514,0,0,0,6.169-.313,2.008,2.008,0,0,0,1.263-.683,2.163,2.163,0,0,0,.282-.932l.529-3.7a3.1,3.1,0,0,0-.045-1.56,2.988,2.988,0,0,0-1.428-1.346c-5.647-3.244-12.242-5.033-17-9.485-1.119-1.048-2.055-2.709-3.415-3.421-1.542-.807-3.358-1.268-4.951-2.012C748.633,426.931,745.207,425.062,741.432,424.194Z" transform="translate(-489.323 -284.861)"/><path class="c" d="M771.848,435.369c3.036.951,15.856,7.543,18.053,9.844-.295.106-10.287-5.494-10.587-5.584a60.38,60.38,0,0,1-8.055-2.839c-.521-.241-3.383-1.373-3.253-2.03C768.152,434.019,771.309,435.2,771.848,435.369Z" transform="translate(-511.164 -291.047)"/><path class="e" d="M849.98,484.506a.714.714,0,0,0,.481-.142.743.743,0,0,0,.15-.554l-.014-5.041a15.5,15.5,0,0,0-4.663-1.125l-7.427-.993c.171.023-1.161,3.2-.957,3.623.36.747,3.11,1.41,3.887,1.762C844.136,483.263,846.941,484.611,849.98,484.506Z" transform="translate(-551.416 -315.439)"/><path class="e" d="M805.467,476.661c-1.4.223-2.967.421-3.875,1.512-1.152,1.384-.661,3.448-.112,5.162a1.674,1.674,0,0,0,1.953,1.4,6.75,6.75,0,0,0,3.757-.483,16.466,16.466,0,0,0,1.459-1.085,9.355,9.355,0,0,1,2.683-1.227,27.127,27.127,0,0,1,5.386-1.11,8.38,8.38,0,0,0,2.122-.374A2.351,2.351,0,0,0,820.335,479a3.457,3.457,0,0,0-.784-2.654,10.588,10.588,0,0,0-2.259-2.792c-1.384-1.075-2.068-.25-3.462.438A29.375,29.375,0,0,1,805.467,476.661Z" transform="translate(-530.204 -313.348)"/><path class="d" d="M779.76,480.132l-8.9-2.632a11.787,11.787,0,0,0-3.313-.642,3.978,3.978,0,0,0-3.043,1.231,5.926,5.926,0,0,0-1.06,2.968l-.368,2.247a11.285,11.285,0,0,0-.206,3.451,3.816,3.816,0,0,0,1.769,2.843c1.232.672,2.742.344,4.117.063a44.828,44.828,0,0,1,8.438-.9,6.771,6.771,0,0,0,3.125-.5,3.9,3.9,0,0,0,1.9-3.109C782.395,483.229,781.755,480.722,779.76,480.132Z" transform="translate(-508.162 -315.557)"/><path class="d" d="M870.221,476.721a21.62,21.62,0,0,0,3.279-1.245,14.583,14.583,0,0,1,4.893-.539,2.369,2.369,0,0,1,2.791,2.667l.745,5.213a8.178,8.178,0,0,1,.061,2.953,2.778,2.778,0,0,1-1.836,2.147c-1.164.3-2.306-.441-3.4-.93-2.748-1.221-5.941-.909-8.806-1.822a1.974,1.974,0,0,1-1.318-.942,2.143,2.143,0,0,1-.1-.9c.049-1.676-.3-3.964.2-5.565C867.176,476.316,868.933,476.721,870.221,476.721Z" transform="translate(-568.157 -314.439)"/><path class="d" d="M869.132,419.068a15.462,15.462,0,0,1,5.447-.372,5.741,5.741,0,0,1,5.764,6.48,15.328,15.328,0,0,1-3.332,9.79,8.881,8.881,0,0,1-1.9,1.834,12.539,12.539,0,0,1-2.478,1.194l-19.238,7.588a124.3,124.3,0,0,1-15.419,5.314,1.2,1.2,0,0,1-1.617-.586,39.859,39.859,0,0,1-4.216-7.713.52.52,0,0,1,.23-.819l13.607-7.818a13.757,13.757,0,0,0,2.769-1.908,6.872,6.872,0,0,0,1.422-1.98c.282-.589.308-1.979.669-2.415s1.559-.46,2.117-.628a19.21,19.21,0,0,0,2.3-.871c3.044-1.362,5.754-3.34,8.672-4.935A22.248,22.248,0,0,1,869.132,419.068Z" transform="translate(-548.227 -281.833)"/><path class="c" d="M871.809,431.523c-2.338,1.756-5.365,3.37-7.682,5.172-.791.615-13.973,8.026-14.159,9.01,2.161.364,15.931-9.268,17.9-10.23a31.812,31.812,0,0,0,5.447-3.662c.441-.343,2.31-1.374,1.044-1.757C873.647,429.841,872.336,431.173,871.809,431.523Z" transform="translate(-558.617 -288.451)"/><path class="g" d="M830.794,297.693H810.273a3.143,3.143,0,0,0-3.143,3.143v1.151h-.223v2.574h.223v1.8h-.223v1.545h.223V326.9a3.143,3.143,0,0,0,3.143,3.144h20.521a3.143,3.143,0,0,0,3.143-3.143V300.836a3.143,3.143,0,0,0-3.143-3.143Z" transform="translate(-533.687 -211.835)"/><path class="d" d="M675.187,139.405l-10.408-5.452-14.373,2.23-2.974,13.134,7.4-.285,2.068-4.825v4.746l3.416-.131,1.982-7.682,1.239,8.178,12.143-.248Z" transform="translate(-374.819 -77.828)"/><path class="e" d="M784.584,369.616a5.408,5.408,0,0,0,1.943,1.933,3.8,3.8,0,0,0,3.34-.089,5.879,5.879,0,0,0,2.41-2.417,12.025,12.025,0,0,0,1.224-6.679c-.141-2.291-.63-4.547-.847-6.832-.157-1.661-.17-3.332-.183-5a1.663,1.663,0,0,1,.21-1.011,1.986,1.986,0,0,1,1.116-.557c2.283-.678,3.8-2.818,4.885-4.937a8.557,8.557,0,0,0,1.216-4.546,3.569,3.569,0,0,0-2.861-3.341,4.586,4.586,0,0,0-3.449,1.608,14.791,14.791,0,0,0-4.331,8.655,33.517,33.517,0,0,1-.586,4.829c-.935,3.339-3.862,5.385-5.32,8.39C781.744,362.929,782.631,366.687,784.584,369.616Z" transform="translate(-519.568 -234.083)"/><path class="e" d="M870.98,343.174a6.309,6.309,0,0,1-3.538,3.4,4.887,4.887,0,0,1-3.076.188,3.411,3.411,0,0,1-2.253-2.015,5.431,5.431,0,0,1-.254-1.514,15.6,15.6,0,0,1,.728-6.674c.315-.811.741-1.58.99-2.414a12.112,12.112,0,0,0,.373-2.946l.269-6.143a4,4,0,0,0-.091-1.332,4.21,4.21,0,0,0-1.861-2,12.232,12.232,0,0,1-4.552-4.831,3.387,3.387,0,0,1-.315-2,3.326,3.326,0,0,1,2.7-2.276,6.038,6.038,0,0,1,7.239,4.866c.12.693.119,1.4.189,2.1.149,1.485.621,2.917.916,4.38.727,3.6.35,7.329,1.069,10.933C870.111,337.911,872.376,339.877,870.98,343.174Z" transform="translate(-562.897 -220.395)"/><circle class="b" cx="2.574" cy="2.574" r="2.574" transform="translate(284.547 94.529)"/><circle class="d" cx="7.594" cy="7.594" r="7.594" transform="translate(0 174.438)"/><path class="h" d="M67.592,481.4l-3.825-3.718-7.681,2.386.738,8.893,15.793-.733-4.852-6.592Z" transform="translate(-32.471 -276.822)"/><circle class="h" cx="12.277" cy="12.277" r="12.277" transform="translate(14.478 179.945)"/><path class="d" d="M393.275,617.061s15.083,25.921,18.673,29.812a65.16,65.16,0,0,0,5.447,5.428s-1.688,5.6-4.375,5.4a12.646,12.646,0,0,1-4.434-1.093s-1.2-3.11-3.292-4.473-19.187-18.182-18.788-23.557S393.275,617.061,393.275,617.061Z" transform="translate(-290.3 -396.726)"/><path class="d" d="M275.023,682.029s16.082,12.482,37.938.753l1.883-1.386s-3.179,7.151-3.473,9.089c-.342,2.248-8.617,15.416-9.968,16.046a3.5,3.5,0,0,0-1.648,1.213l5.731,6.308,2.119-1.559s8.262-11.706,10.679-13.847,13.93-24.225,13.93-24.225,4.4-8.321-6.584-8.947-16.041,2.369-16.041,2.369l-19.5,3.1Z" transform="translate(-225.764 -424.705)"/><path class="d" d="M444.392,697.841l8.134,5.628s10.378,3.251,3.985,5.415-23.238,2.946-23.62-.039.664-7.684,1.5-7.427S441.069,703.19,444.392,697.841Z" transform="translate(-317.112 -443.492)"/><path class="d" d="M335.308,767.2l1.506,8.268s4.281,8.187-.859,5.647-15.73-12.19-14.166-14.213,5.015-4.217,5.366-3.558S330.1,768.417,335.308,767.2Z" transform="translate(-252.748 -481.345)"/><path class="f" d="M250.586,620.592s-10.932,12.763-17.569,9.663-33.791-39.011-30.69-45.648,4.14-5.224,4.14-5.224l14.02,1.3-4.034-6.468a2.729,2.729,0,0,1,3.678.56c1.795,1.946,9,6.805,11.511,13.669s9.88,6.521,9.88,6.521Z" transform="translate(-183.536 -371.642)"/><path class="a" d="M214.69,489.029l-18.95,20.116-16.976-29.972,16.138-19.5Z" transform="translate(-103.493 -266.397)"/><path class="f" d="M215.831,491.1l-17.116,17.677-15.51-27.24,14.224-17.908Z" transform="translate(-106.064 -268.688)"/><path class="i" d="M180.556,575.336l.928.768-.6,1.164-26.5,7.887-.251-.908L155.346,583Z" transform="translate(-89.237 -333.358)"/><path class="g" d="M158.914,535.78l-27.44,8.579-16.727-31.607,26.956-6.771Z" transform="translate(-66.431 -293.206)"/><path class="a" d="M195.15,535.7l-1.177.866-13.066-22.686,1.35-.631Z" transform="translate(-104.733 -297.414)"/><path class="a" d="M174.242,538.612l-11.608,3.461-13.177-23.331L160.94,516.1Z" transform="translate(-86.526 -299.063)"/><path class="h" d="M286.664,620.282l2.4-.68s13.4-1.516,13.6,2.7-15.4,2.257-15.4,2.257l-2.079-2.825Z" transform="translate(-231.65 -398.044)"/><path class="h" d="M312.493,653.12l3.345-1.373s10.1-4.527,7.2-7.477-11.83,2.173-11.83,2.173l-1.71,1.622Z" transform="translate(-245.723 -411.949)"/><path class="f" d="M248.195,629.332s5.447,5.428,4.207,6.7-21.562,18.046-26.6,12.68-29.583-32.308-20.032-34.618,12.075,3.091,12.075,3.091l12.608,21.572Z" transform="translate(-184.406 -394.677)"/><path class="f" d="M111.853,518.781l8.947,3.034-.146,6.459-9.462-1.021Z" transform="translate(-64.373 -300.616)"/><path class="j" d="M103.518,550.356,93.879,556,82.865,539.06,93.5,553.013Z" transform="translate(-47.974 -312.356)"/><circle class="d" cx="14.616" cy="14.616" r="14.616" transform="translate(6.75 174.047)"/><path class="b" d="M224.229,504.449l-10.234-14.971,4.338-5.37,10.634,15.4Z" transform="translate(-123.889 -280.543)"/><path class="k" d="M216.193,514.293l-15.58-22.651.768-.928,15.508,22.7Z" transform="translate(-116.142 -284.367)"/><path class="k" d="M211.425,519.526l-15.58-22.651.768-.928,15.508,22.7Z" transform="translate(-113.381 -287.397)"/><path class="k" d="M207.363,523.377l-15.58-22.651.768-.928,15.508,22.7Z" transform="translate(-111.03 -289.626)"/><path class="d" d="M66.117,425.544h4.521a8.632,8.632,0,0,1,8.632,8.632H66.117Z" transform="translate(-38.278 -246.638)"/><path class="a" d="M365.769,505.542l-.82-.061c-.032.426-.055.855-.082,1.283l-3.679-.123,3.859,7.232,4.334-6.958-3.693-.124C365.716,506.375,365.738,505.957,365.769,505.542Z" transform="translate(-275.648 -332.13)"/><path class="a" d="M423.317,360.349l.654.5c.98-1.284,2-2.566,3.043-3.81l-.631-.527C425.336,357.765,424.3,359.056,423.317,360.349Z" transform="translate(-311.616 -245.886)"/><path class="a" d="M438.272,342.844l.607.554c1.091-1.194,2.223-2.381,3.365-3.526l-.582-.581C440.511,340.446,439.371,341.641,438.272,342.844Z" transform="translate(-320.274 -235.918)"/><path class="a" d="M454.736,326.765l.556.606c1.193-1.1,2.424-2.177,3.66-3.215l-.529-.629C457.178,324.573,455.938,325.662,454.736,326.765Z" transform="translate(-329.805 -226.79)"/><path class="a" d="M409.991,379.149l.695.439c.864-1.367,1.771-2.734,2.7-4.064l-.675-.47C411.775,376.394,410.861,377.772,409.991,379.149Z" transform="translate(-303.901 -256.621)"/><path class="a" d="M472.579,312.237l.5.652c1.284-.986,2.606-1.955,3.928-2.88l-.471-.674C475.2,310.268,473.873,311.244,472.579,312.237Z" transform="translate(-340.135 -218.575)"/><path class="a" d="M398.406,399.1l.731.376c.741-1.44,1.524-2.883,2.328-4.289l-.714-.408C399.941,396.2,399.152,397.65,398.406,399.1Z" transform="translate(-297.194 -268.042)"/><path class="a" d="M376.943,459.715l-.8-.2c-.406,1.577-.782,3.186-1.118,4.781l.8.169C376.167,462.878,376.54,461.281,376.943,459.715Z" transform="translate(-283.66 -305.516)"/><path class="a" d="M491.665,299.374l.441.694c1.363-.867,2.763-1.715,4.164-2.522l-.41-.712C494.449,297.646,493.038,298.5,491.665,299.374Z" transform="translate(-351.184 -211.337)"/><path class="a" d="M372.745,482.46l-.811-.133c-.264,1.6-.5,3.24-.689,4.861l.816.1C372.254,485.676,372.483,484.053,372.745,482.46Z" transform="translate(-281.47 -318.725)"/><path class="a" d="M388.661,420.059l.761.309c.61-1.5,1.262-3.008,1.938-4.481l-.747-.343C389.932,417.028,389.275,418.548,388.661,420.059Z" transform="translate(-291.552 -280.062)"/><path class="a" d="M380.841,441.86l.786.24c.474-1.551.989-3.112,1.531-4.639l-.775-.275C381.838,438.725,381.318,440.3,380.841,441.86Z" transform="translate(-287.025 -292.592)"/><path class="a" d="M623.693,262.731c1.612-.056,3.253-.078,4.876-.063l.007-.822c-1.635-.015-3.288.007-4.911.063Z" transform="translate(-427.603 -191.079)"/><path class="a" d="M511.845,288.282l.378.73c1.436-.744,2.905-1.465,4.368-2.142l-.346-.746C514.772,286.807,513.291,287.533,511.845,288.282Z" transform="translate(-362.867 -205.137)"/><path class="a" d="M669.93,265.269c1.6.227,3.222.493,4.81.79l.151-.808c-1.6-.3-3.231-.567-4.847-.8Z" transform="translate(-454.387 -192.592)"/><path class="a" d="M692.685,269.544c1.574.368,3.163.776,4.721,1.214l.222-.792c-1.57-.441-3.17-.853-4.757-1.223Z" transform="translate(-467.561 -195.075)"/><path class="a" d="M714.969,275.837c1.535.506,3.081,1.055,4.594,1.63l.292-.768c-1.525-.58-3.082-1.132-4.629-1.642Z" transform="translate(-480.462 -198.729)"/><path class="a" d="M646.886,263.03c1.619.085,3.255.207,4.862.362l.079-.818c-1.62-.157-3.268-.28-4.9-.365Z" transform="translate(-441.047 -191.292)"/><path class="a" d="M600.423,263.153l.1.816c1.6-.2,3.233-.361,4.848-.488l-.064-.82C603.68,262.788,602.037,262.954,600.423,263.153Z" transform="translate(-414.148 -191.554)"/><path class="a" d="M554.878,271.743l.243.785c1.545-.478,3.121-.928,4.686-1.337l-.208-.8C558.023,270.808,556.434,271.261,554.878,271.743Z" transform="translate(-387.78 -196.032)"/><path class="a" d="M532.961,279.051l.312.761c1.495-.613,3.021-1.2,4.538-1.745l-.278-.774C536,277.841,534.467,278.433,532.961,279.051Z" transform="translate(-375.092 -200.024)"/><path class="a" d="M577.434,266.43l.172.8c1.579-.339,3.19-.647,4.786-.915l-.136-.811C580.648,265.779,579.025,266.089,577.434,266.43Z" transform="translate(-400.839 -193.202)"/><path class="a" d="M743.768,283.519l-4.594-6.789-1.615,3.325c-.391-.175-.78-.353-1.171-.522l-.327.755c.381.165.758.338,1.138.507l-1.608,3.309Z" transform="translate(-492.401 -199.698)"/></svg>