<svg xmlns="http://www.w3.org/2000/svg" xmlns:xlink="http://www.w3.org/1999/xlink" width="52" height="52" viewBox="0 0 52 52"><defs><style>.a,.c{fill:#3f8ac5;}.a{stroke:#707070;}.b{clip-path:url(#a);}</style><clipPath id="a"><rect class="a" width="52" height="52" transform="translate(109 599)"/></clipPath></defs><g class="b" transform="translate(-109 -599)"><g transform="translate(109 599)"><path class="c" d="M46.4,21.213H26.816a5.609,5.609,0,0,0-5.6,5.6V37.454L16.14,41.078a1.523,1.523,0,0,0,0,2.479l5.134,3.667A5.611,5.611,0,0,0,26.816,52H46.4A5.609,5.609,0,0,0,52,46.4V26.816a5.609,5.609,0,0,0-5.6-5.6ZM39.813,42.62c-.359,0-.636-.114-.718-.424l-.62-2.171H34.738l-.62,2.171c-.082.31-.359.424-.718.424-.571,0-1.338-.359-1.338-.881a.942.942,0,0,1,.033-.163l3.15-10.264a1.326,1.326,0,0,1,1.354-.718c.62,0,1.224.229,1.371.718l3.15,10.264a.722.722,0,0,1,.033.163c0,.505-.767.881-1.338.881Zm0,0"/><path class="c" d="M35.179,38.36h2.84L36.6,33.351Zm0,0"/><path class="c" d="M18.167,26.816a8.607,8.607,0,0,1,1.907-5.409,8.174,8.174,0,0,1-4.68-1.468,8.172,8.172,0,0,1-4.681,1.468.859.859,0,0,1,0-1.718,6.468,6.468,0,0,0,3.333-.921A8.194,8.194,0,0,1,11.9,14.043H10.713a.859.859,0,1,1,0-1.718h3.822V10.239a.859.859,0,1,1,1.718,0v2.086h3.822a.859.859,0,1,1,0,1.718H18.89a8.194,8.194,0,0,1-2.148,4.724,6.459,6.459,0,0,0,3.332.921.859.859,0,0,1,.856.8,8.616,8.616,0,0,1,5.886-2.32h3.97V14.546l5.073-3.624a1.524,1.524,0,0,0,0-2.479L30.726,4.775A5.612,5.612,0,0,0,25.184,0H5.6A5.609,5.609,0,0,0,0,5.6V25.184a5.609,5.609,0,0,0,5.6,5.6H18.167Zm0,0"/><path class="c" d="M15.393,17.694a6.486,6.486,0,0,0,1.765-3.65h-3.53A6.491,6.491,0,0,0,15.393,17.694Zm0,0"/></g></g></svg>