<svg xmlns="http://www.w3.org/2000/svg" viewBox="0 0 60 60" fill="currentColor">
	<path d="M23.6,50.3c0-0.1-0.1-0.2-0.2-0.2l-4.8-4.8c-0.3-0.3-0.8-0.3-1.1,0s-0.3,0.8,0,1.1l3.5,3.5
		h-0.6c-6.2,0-11.3-5-11.3-11.3c0-0.4-0.3-0.8-0.8-0.8s-0.8,0.3-0.8,0.8c0,7,5.7,12.8,12.8,12.8h0.6l-3.5,3.5
		c-0.3,0.3-0.3,0.8,0,1.1c0.1,0.1,0.3,0.2,0.5,0.2s0.4-0.1,0.5-0.2l4.8-4.8c0.1-0.1,0.1-0.2,0.2-0.2c0-0.1,0.1-0.2,0.1-0.3
		S23.6,50.3,23.6,50.3z" />
	<path d="M30.1,3H8.5c-2.4,0-4.4,2-4.4,4.4v14.4c0,2.4,2,4.4,4.4,4.4h10.1v3.3h-5.3
		c-0.4,0-0.8,0.3-0.8,0.8s0.3,0.8,0.8,0.8h12c0.4,0,0.8-0.3,0.8-0.8s-0.3-0.8-0.8-0.8H20v-3.3h10.1c2.4,0,4.4-2,4.4-4.4V7.3
		C34.5,4.9,32.5,3,30.1,3z M8.5,4.5h21.6c1.6,0,2.9,1.3,2.9,2.9v10.1H5.6V7.3C5.6,5.7,6.9,4.5,8.5,4.5z M30.1,24.6H8.5
		c-1.6,0-2.9-1.3-2.9-2.9v-2.8H33v2.8C33,23.3,31.7,24.6,30.1,24.6z" />
	<path
		d="M52.9,24.6H38.5c-1.7,0-3.2,1.4-3.2,3.2v26.4c0,1.7,1.4,3.2,3.2,3.2h14.4
		c1.7,0,3.2-1.4,3.2-3.2V27.7C56.1,26,54.7,24.6,52.9,24.6z M38.5,26.1h14.4c0.9,0,1.7,0.7,1.7,1.7v20.9H36.9V27.7
		C36.9,26.8,37.6,26.1,38.5,26.1z M52.9,55.8H38.5c-0.9,0-1.7-0.7-1.7-1.7v-4.1h17.7v4.1C54.6,55.1,53.8,55.8,52.9,55.8z" />
	<circle cx="45.7" cy="52.9" r="1.2" />
</svg>