<?xml version="1.0" encoding="utf-8"?>
<svg viewBox="38.884 0 278.553 88.362" xmlns="http://www.w3.org/2000/svg">
  <path style="fill: rgb(19, 154, 214);" d="M 247.962 29.363 L 232.583 29.363 C 231.678 29.363 230.774 30.264 230.321 31.164 L 223.989 70.762 C 223.989 71.662 224.441 72.112 225.346 72.112 L 233.487 72.112 C 234.392 72.112 234.845 71.662 234.845 70.762 L 236.654 59.513 C 236.654 58.613 237.558 57.713 238.915 57.713 L 243.891 57.713 C 254.294 57.713 260.174 52.763 261.531 42.863 C 262.436 38.814 261.531 35.214 259.721 32.964 C 257.008 30.714 252.937 29.363 247.962 29.363 M 249.771 44.213 C 248.866 49.613 244.795 49.613 240.724 49.613 L 238.011 49.613 L 239.82 39.264 C 239.82 38.814 240.273 38.364 241.177 38.364 L 242.082 38.364 C 244.795 38.364 247.509 38.364 248.866 40.163 C 249.771 40.614 249.771 41.964 249.771 44.213"/>
  <g transform="matrix(0.565392, 0, 0, 0.562479, 27.685223, -95.056808)" style="">
    <path style="fill:#263B80;" d="M193.6,221.2h-27.2c-1.6,0-3.2,1.6-4,3.2l-11.2,70.4c0,1.6,0.8,2.4,2.4,2.4h12.8 c1.6,0,3.2-1.6,4-3.2l3.2-19.2c0-1.6,1.6-3.2,4-3.2h8.8c18.4,0,28.8-8.8,31.2-26.4c1.6-7.2,0-13.6-3.2-17.6 C209.6,223.6,203.2,221.2,193.6,221.2 M196.8,247.6c-1.6,9.6-8.8,9.6-16,9.6h-4l3.2-18.4c0-0.8,0.8-1.6,2.4-1.6h1.6 c4.8,0,9.6,0,12,3.2C196.8,241.2,197.6,243.6,196.8,247.6"/>
    <path style="fill:#263B80;" d="M276,246.8h-12.8c-0.8,0-2.4,0.8-2.4,1.6l-0.8,4l-0.8-1.6c-3.2-4-8.8-5.6-15.2-5.6 c-14.4,0-27.2,11.2-29.6,26.4c-1.6,8,0.8,15.2,4.8,20s9.6,6.4,16.8,6.4c12,0,18.4-7.2,18.4-7.2l-0.8,4c0,1.6,0.8,2.4,2.4,2.4h12 c1.6,0,3.2-1.6,4-3.2l7.2-44.8C278.4,248.4,276.8,246.8,276,246.8 M257.6,272.4c-1.6,7.2-7.2,12.8-15.2,12.8c-4,0-7.2-1.6-8.8-3.2 c-1.6-2.4-2.4-5.6-2.4-9.6c0.8-7.2,7.2-12.8,14.4-12.8c4,0,6.4,1.6,8.8,3.2C256.8,265.2,257.6,269.2,257.6,272.4"/>
  </g>
  <path style="fill: rgb(19, 154, 214);" d="M 294.097 43.763 L 286.861 43.763 C 286.408 43.763 285.504 44.213 285.504 44.663 L 285.051 46.913 L 284.599 46.013 C 282.79 43.763 279.624 42.863 276.005 42.863 C 267.863 42.863 260.627 49.163 259.27 57.713 C 258.365 62.213 259.721 66.263 261.983 68.962 C 264.245 71.662 267.411 72.563 271.482 72.563 C 278.267 72.563 281.885 68.513 281.885 68.513 L 281.433 70.762 C 281.433 71.662 281.885 72.112 282.79 72.112 L 289.575 72.112 C 290.479 72.112 291.384 71.212 291.836 70.312 L 295.907 45.114 C 295.455 44.663 295.003 43.763 294.097 43.763 M 283.695 58.163 C 282.79 62.213 279.624 65.362 275.1 65.362 C 272.838 65.362 271.029 64.463 270.125 63.562 C 269.22 62.213 268.768 60.413 268.768 58.163 C 269.22 54.113 272.838 50.963 276.909 50.963 C 279.171 50.963 280.528 51.864 281.885 52.763 C 283.695 54.113 284.147 56.363 283.695 58.163"/>
  <path style="fill: rgb(38, 59, 128);" d="M 223.085 43.763 L 215.395 43.763 C 214.49 43.763 214.039 44.213 213.586 44.663 L 203.635 59.963 L 199.111 45.563 C 198.66 44.663 198.207 44.213 196.851 44.213 L 189.613 44.213 C 188.709 44.213 188.256 45.114 188.256 46.013 L 196.398 69.863 L 188.709 80.662 C 188.256 81.562 188.709 82.912 189.613 82.912 L 196.851 82.912 C 197.755 82.912 198.207 82.462 198.66 82.012 L 223.537 46.464 C 224.894 45.114 223.989 43.763 223.085 43.763"/>
  <path style="fill: rgb(19, 154, 214);" d="M 302.692 30.714 L 296.359 71.212 C 296.359 72.112 296.812 72.563 297.716 72.563 L 304.049 72.563 C 304.954 72.563 305.858 71.662 306.31 70.762 L 312.642 31.164 C 312.642 30.264 312.191 29.814 311.285 29.814 L 304.049 29.814 C 303.596 29.363 303.144 29.814 302.692 30.714"/>
  <path style="fill: rgb(38, 59, 128);" d="M 96.358 11.438 C 93.099 7.494 87.046 5.524 78.667 5.524 L 55.39 5.524 C 53.993 5.524 52.596 7.002 52.131 8.48 L 42.82 73.037 C 42.82 74.515 43.752 75.501 44.682 75.501 L 59.115 75.501 L 62.839 51.353 L 62.839 52.34 C 63.305 50.861 64.701 49.383 66.097 49.383 L 73.081 49.383 C 86.582 49.383 96.823 43.469 100.083 27.207 C 100.083 26.714 100.083 26.221 100.083 25.728 C 99.617 25.728 99.617 25.728 100.083 25.728 C 100.547 19.323 99.617 15.38 96.358 11.438"/>
  <path style="fill: rgb(19, 154, 214);" d="M 96.077 28.367 L 96.077 28.367 C 96.077 28.806 96.077 29.245 96.077 29.683 C 93.061 44.587 83.58 49.408 71.084 49.408 L 64.619 49.408 C 63.327 49.408 62.034 50.723 61.603 52.039 L 57.294 78.777 C 57.294 79.653 57.725 80.53 59.018 80.53 L 70.221 80.53 C 71.515 80.53 72.807 79.653 72.807 78.338 L 72.807 77.9 L 74.963 64.311 L 74.963 63.434 C 74.963 62.119 76.254 61.243 77.547 61.243 L 79.271 61.243 C 90.044 61.243 98.662 56.86 100.817 43.71 C 101.679 38.45 101.248 33.628 98.662 30.56 C 98.232 29.683 97.369 28.806 96.077 28.367"/>
  <path style="fill: rgb(35, 44, 101);" d="M 94.837 27.018 C 94.384 27.018 93.931 26.568 93.479 26.568 C 93.027 26.568 92.575 26.568 92.122 26.118 C 90.313 25.668 88.504 25.668 86.242 25.668 L 68.602 25.668 C 68.15 25.668 67.697 25.668 67.245 26.118 C 66.341 26.568 65.888 27.468 65.888 28.367 L 62.27 51.767 L 62.27 52.668 C 62.722 51.318 64.079 49.967 65.436 49.967 L 72.221 49.967 C 85.338 49.967 95.288 44.568 98.455 29.718 C 98.455 29.268 98.455 28.818 98.907 28.367 C 98.002 27.918 97.55 27.468 96.646 27.468 C 95.288 27.018 95.288 27.018 94.837 27.018"/>
</svg>